<?xml version="1.0" encoding="UTF-8" standalone="no"?>
<!-- Created with Inkscape (http://www.inkscape.org/) -->
<svg
   xmlns:dc="http://purl.org/dc/elements/1.1/"
   xmlns:cc="http://web.resource.org/cc/"
   xmlns:rdf="http://www.w3.org/1999/02/22-rdf-syntax-ns#"
   xmlns:svg="http://www.w3.org/2000/svg"
   xmlns="http://www.w3.org/2000/svg"
   xmlns:sodipodi="http://sodipodi.sourceforge.net/DTD/sodipodi-0.dtd"
   xmlns:inkscape="http://www.inkscape.org/namespaces/inkscape"
   width="729.65601"
   height="795.54492"
   id="svg2"
   sodipodi:version="0.32"
   inkscape:version="0.44+devel"
   sodipodi:docbase="C:\Documents and Settings\Molumen\Desktop"
   sodipodi:docname="DigitaLink_Blank_T-Shirt.svg"
   inkscape:output_extension="org.inkscape.output.svg.inkscape"
   version="1.0">
  <defs
     id="defs4" />
  <sodipodi:namedview
     id="base"
     pagecolor="#ffffff"
     bordercolor="#666666"
     borderopacity="1.0"
     gridtolerance="10000"
     guidetolerance="10"
     objecttolerance="10"
     inkscape:pageopacity="0.0"
     inkscape:pageshadow="2"
     inkscape:zoom="0.53745252"
     inkscape:cx="453.0606"
     inkscape:cy="359.97928"
     inkscape:document-units="px"
     inkscape:current-layer="layer1"
     inkscape:window-width="1280"
     inkscape:window-height="918"
     inkscape:window-x="88"
     inkscape:window-y="116"
     showguides="true"
     inkscape:guide-bbox="true" />
  <metadata
     id="metadata7">
    <rdf:RDF>
      <cc:Work
         rdf:about="">
        <dc:format>image/svg+xml</dc:format>
        <dc:type
           rdf:resource="http://purl.org/dc/dcmitype/StillImage" />
      </cc:Work>
    </rdf:RDF>
  </metadata>
  <g
     inkscape:label="Layer 1"
     inkscape:groupmode="layer"
     id="layer1"
     transform="translate(0.2376208,-131.8097)">
    <path
       style="fill:#000000;fill-opacity:0.07106599;"
       d="M 279.07128,142.625 C 275.82778,142.61082 262.31608,149.7297 255.94628,154.8125 C 252.33878,157.69101 214.59998,172.0824 188.66498,180.46875 C 159.33238,189.95373 150.92128,192.26953 135.19628,195.25 C 110.57718,199.91621 96.549479,210.71857 85.196279,233.71875 C 81.980979,240.23257 78.163279,250.66363 76.727479,256.90625 C 75.291579,263.14887 73.432179,268.96529 72.602479,269.8125 C 71.772679,270.65971 71.102479,274.35965 71.102479,278.0625 C 71.102479,284.52636 70.414679,285.90791 60.571279,299.25 C 59.184579,301.12935 57.471379,307.48715 56.758779,313.40625 C 55.818279,321.21845 54.455879,325.28326 51.727479,328.1875 C 48.571379,331.54707 47.722079,334.8672 46.477479,348.875 C 44.871479,366.95109 44.112179,370.06458 33.039979,405.28125 C 24.517279,432.38913 17.537279,459.11825 12.883779,482.28125 C 9.328779,499.97572 6.382679,526.09375 7.477479,530.375 C 7.856679,531.85743 11.208379,534.18191 14.914979,535.53125 C 18.621579,536.88057 25.741679,539.46833 30.727479,541.28125 C 58.652279,551.4352 67.594079,553.15633 95.883779,553.8125 L 123.10248,554.4375 L 128.78998,560.125 C 133.75038,565.08543 135.46738,565.8125 142.50878,565.8125 C 146.93798,565.81251 150.57228,566.33115 150.57128,567 C 150.56658,570.27714 141.89878,602.69036 140.07128,606.28125 C 136.77178,612.76432 135.58518,633.33268 137.75878,646.0625 C 140.67248,663.12801 140.29888,668.95179 135.22748,685.75 C 129.85238,703.55419 130.37578,709.42954 139.10248,729.3125 C 144.91628,742.55888 145.26768,749.09456 140.82128,760.375 C 137.11828,769.7696 136.66528,778.44547 139.60248,783.59375 C 140.98028,786.00876 141.93098,799.75552 142.60248,826.84375 C 143.59768,866.98954 146.50818,889.76707 151.22748,894.625 C 152.79668,896.24025 155.49388,896.39083 162.85248,895.21875 C 173.67458,893.49493 209.91738,895.36144 222.69628,898.3125 C 227.15858,899.34297 239.58838,902.62866 250.28998,905.59375 C 269.78548,910.99536 298.09868,916.97341 310.25878,918.25 C 313.82598,918.6245 332.45998,918.73734 351.63378,918.5 C 379.87558,918.15045 389.71618,917.38283 403.50878,914.53125 C 432.33928,908.57059 446.77918,903.9853 478.19628,890.75 C 512.76168,876.18839 538.07598,868.47263 558.00878,866.4375 C 566.15918,865.6053 569.42028,864.55698 570.57128,862.40625 C 572.63718,858.54616 572.55728,823.84799 570.44628,807.90625 C 569.52228,800.93027 567.23068,790.74648 565.35248,785.28125 L 561.94628,775.375 L 567.91498,761.4375 C 579.44418,734.59455 581.13088,713.39774 572.69628,700.96875 C 569.55388,696.33829 568.84278,693.79684 569.66498,689.96875 C 579.22388,645.46329 580.73718,608.11083 574.35248,574.09375 L 573.32128,568.625 L 584.47748,569.875 C 604.63068,572.15252 613.22148,569.86527 622.97748,559.59375 C 626.48038,555.90581 629.65758,554.4131 635.94628,553.5625 C 655.76788,550.88145 681.83058,544.11312 702.66498,536.21875 C 722.02478,528.88317 721.67508,529.49337 716.47748,512.34375 C 714.71308,506.52187 711.00968,493.71607 708.25878,483.90625 C 701.62428,460.24758 692.05328,429.38531 682.13378,399.71875 C 674.87228,378.00159 674.14608,374.55305 675.10248,366.3125 C 676.45988,354.61726 673.97828,345.35689 668.07128,340.09375 C 663.80698,336.29431 663.35068,334.81412 662.35248,320.78125 C 661.33028,306.41174 655.04658,277.11895 651.57128,270.625 C 650.69578,268.9892 649.97748,265.83086 649.97748,263.59375 C 649.97748,261.35662 648.01438,254.26629 645.63378,247.84375 C 639.07168,230.14057 626.69348,217.69011 605.47748,207.4375 C 596.49748,203.09797 579.29798,196.19043 567.25878,192.0625 C 501.86528,169.641 488.78668,164.29433 472.38378,153.40625 C 464.71698,148.31715 462.38238,147.47822 459.60248,148.8125 C 444.98518,155.82839 403.03068,162.06287 370.38378,162.0625 C 337.68578,162.06213 314.75888,157.54627 290.82128,146.40625 C 286.36218,144.33114 281.06448,142.63371 279.07128,142.625 z M 276.88378,149.09375 C 277.82148,149.09375 280.05008,151.93451 281.82128,155.40625 C 287.66588,166.86263 304.92608,188.19037 315.22748,196.6875 C 335.40098,213.32756 358.96068,221.21751 377.07128,217.375 C 396.63978,213.22314 413.64898,204.54576 430.78998,190 C 439.26598,182.80731 455.27978,165.05532 460.41498,157.1875 L 463.03998,153.21875 L 469.75878,157.65625 C 473.45348,160.10129 476.47748,162.84542 476.47748,163.75 C 476.47748,167.60646 466.30278,185.03457 457.91498,195.5625 C 440.73148,217.13014 418.30178,230.24381 388.91498,235.90625 C 353.27568,242.77348 320.17168,232.28548 291.85248,205.125 C 276.67118,190.56485 260.82128,167.43637 260.82128,159.84375 C 260.82128,157.56235 273.47698,149.09374 276.88378,149.09375 z M 486.91498,168.53125 C 487.16018,168.53125 492.39758,170.62542 498.53998,173.15625 C 504.68228,175.68709 514.09538,179.26217 519.44628,181.125 C 524.79698,182.98783 542.95108,189.28241 559.78998,195.125 C 595.83078,207.63009 613.98888,216.07386 624.16498,225.03125 C 632.03118,231.95535 640.37448,245.9648 643.38378,257.28125 C 645.44008,265.01422 644.81768,266.70676 633.16498,285.1875 L 626.60248,295.59375 L 624.35248,290.03125 C 620.84718,281.35936 617.73908,278.81251 610.78998,278.8125 C 605.81418,278.8125 603.27518,280.03396 598.10248,284.90625 C 590.64488,291.93085 589.12068,296.69991 583.50878,330.6875 C 581.52078,342.72683 579.60718,352.87841 579.25878,353.25 C 578.91018,353.62158 578.63378,343.92661 578.63378,331.6875 C 578.63378,293.3763 572.00958,257.71876 564.91498,257.71875 C 560.85788,257.71875 558.91138,290.48112 561.19628,320.15625 C 562.15168,332.56591 563.19358,345.38426 564.82128,364.75 C 568.69498,410.83972 567.21118,457.62165 560.66498,496.0625 C 555.60988,525.74624 554.32648,530.25607 526.69628,613.46875 C 514.22968,651.01372 503.30198,683.98004 502.41498,686.71875 C 500.46688,692.73364 500.28408,700.37499 502.10248,700.375 C 505.44138,700.375 514.39998,688.02695 536.22748,653.34375 L 539.78998,647.6875 L 538.69628,652.53125 C 536.91078,660.33914 529.39848,681.34853 518.13378,710.09375 C 506.04898,740.93089 499.13628,756.045 491.57128,768.09375 C 485.65118,777.52235 484.94338,781.05988 488.69628,782.5 C 493.10108,784.19028 497.69258,777.88671 508.97748,754.6875 C 521.76728,728.39469 530.28158,706.91326 548.53998,654.96875 C 551.51798,646.49664 554.47158,638.30555 555.10248,636.75 C 556.48338,633.34502 559.16508,634.55653 559.16498,638.59375 C 559.16498,640.18229 561.47718,646.08983 564.28998,651.71875 C 569.84658,662.83849 569.84648,663.14338 564.10248,691.46875 C 561.24558,705.55697 527.88258,767.87595 501.32128,808.78125 C 492.29558,822.68109 491.09428,827.65624 496.75878,827.65625 C 499.00268,827.65625 502.76628,823.47732 509.13378,813.875 C 522.27838,794.0526 544.74988,755.12859 557.97748,729.28125 C 564.25288,717.01869 569.95528,707.33068 570.63378,707.75 C 573.16108,709.31199 573.96198,721.62911 572.13378,730.71875 C 568.30968,749.73199 558.35718,773.53674 549.60248,784.6875 C 537.65658,799.90289 524.40678,814.01112 515.91498,820.5625 C 509.50928,825.50445 507.25008,828.2952 507.60248,830.75 C 507.86888,832.60548 509.20068,834.33892 510.53998,834.59375 C 514.24588,835.29885 532.49778,819.22713 546.97748,802.53125 L 559.91498,787.59375 L 561.78998,792.21875 C 564.77938,799.70074 567.59558,828.04839 567.00878,844.6875 L 566.47748,860.09375 L 561.60248,860.53125 C 540.23398,862.43565 509.22248,871.75405 474.03998,886.84375 C 450.57688,896.90699 424.96478,904.85916 401.00878,909.5 C 381.03328,913.36971 332.19828,915.17486 311.07128,912.84375 C 294.05088,910.96576 267.65498,905.40356 249.47748,899.84375 C 229.16868,893.63204 209.63738,890.08975 195.38378,890.0625 C 189.01668,890.05033 182.32358,889.63814 180.53998,889.15625 C 176.43098,888.04609 154.22788,844.66562 156.16498,841.53125 C 158.06888,838.45077 168.49468,840.1525 199.19628,848.59375 C 221.13328,854.62528 256.42738,863.48472 269.72748,866.28125 C 280.67948,868.58406 288.90828,870.20022 307.85248,873.75 C 329.61888,877.82863 392.71708,883.628 414.85248,883.59375 C 430.67368,883.56923 465.66418,879.4378 470.10248,877.0625 C 472.72368,875.65963 473.11668,874.73296 471.69628,873.3125 C 469.51198,871.12825 450.62348,871.50729 442.25878,873.90625 C 434.82128,876.0393 418.22838,875.90261 408.78998,873.625 C 383.32098,867.47911 334.63618,849.2947 299.16498,832.6875 C 290.38748,828.57798 282.91128,825.21874 282.53998,825.21875 C 281.05118,825.21875 250.02448,806.78226 239.16498,799.4375 C 221.36778,787.40062 201.86488,765.90888 189.66498,744.9375 C 183.96578,735.14083 175.42548,720.52684 170.69628,712.46875 C 150.10318,677.38054 144.15468,651.74999 156.60248,651.75 C 160.11768,651.75 164.08178,654.82328 174.88378,665.96875 C 186.32118,677.76996 190.98148,684.33703 202.25878,704.46875 C 219.54848,735.3335 233.95208,757.02377 247.69628,772.9375 C 259.23268,786.29488 265.69628,789.77556 265.69628,782.625 C 265.69628,780.47169 264.11978,777.32388 262.22748,775.625 C 258.03178,771.85814 244.60248,754.59162 244.60248,752.96875 C 244.60248,752.32574 248.42048,755.42175 253.10248,759.84375 C 291.78088,796.37464 355.84538,826.82752 415.66498,837.125 C 455.58598,843.99708 458.63378,844.22762 458.63378,840.625 C 458.63378,839.2873 458.25228,838.18747 457.78998,838.1875 C 454.79428,838.1875 430.87258,830.97881 424.72748,828.21875 C 405.88538,819.75566 391.06878,811.63768 388.10248,808.15625 C 386.31888,806.06289 379.75138,800.93395 373.50878,796.75 C 314.33618,757.09097 244.18218,676.42318 207.22748,605.53125 C 201.64888,594.82963 195.48688,584.49599 193.50878,582.5625 C 186.12098,575.34112 171.11708,520.35127 163.72748,473.375 C 153.43308,407.93127 151.56428,326.52017 158.38378,241.5625 C 159.38918,229.03681 159.84158,227.65483 163.53998,225.875 C 165.76948,224.80206 186.17408,217.89406 208.91498,210.53125 C 231.65598,203.16845 253.30298,195.81842 257.00878,194.1875 C 260.71448,192.55656 264.74698,191.6215 265.94628,192.125 C 267.14538,192.6285 271.25898,196.98712 275.10248,201.78125 C 283.60578,212.38781 300.47068,226.26369 313.25878,233.1875 C 334.27978,244.569 360.67658,249.53976 383.57128,246.40625 C 425.71588,240.63808 456.97728,219.25919 479.16498,181.09375 C 483.18298,174.18228 486.66988,168.53124 486.91498,168.53125 z M 125.10248,245.8125 C 127.37368,245.41251 127.47878,248.26594 125.16498,254.15625 C 122.30488,261.43745 118.54108,262.93887 114.72748,258.34375 C 112.85178,256.08373 113.40908,254.99639 118.75878,250.09375 C 121.60628,247.4842 123.73978,246.05249 125.10248,245.8125 z M 108.53998,265.8125 C 109.25268,265.8125 111.75948,267.48465 114.10248,269.5 L 118.35248,273.15625 L 115.88378,283.6875 C 114.52788,289.4754 113.00938,296.937 112.47748,300.28125 C 111.94548,303.62551 110.93528,306.375 110.25878,306.375 C 108.73078,306.375 98.664979,296.09069 98.664979,294.53125 C 98.664979,293.90485 99.672679,293.40625 100.91498,293.40625 C 103.99648,293.40625 105.22958,289.64871 106.32128,276.78125 C 106.83208,270.7616 107.82728,265.81249 108.53998,265.8125 z M 648.32128,280.40625 C 650.44878,280.40625 654.85928,301.13702 657.03998,321.34375 C 658.91438,338.71131 659.44118,340.55504 663.38378,343.65625 C 668.96708,348.04806 670.97918,355.63703 669.32128,366.125 C 668.15518,373.50232 668.68588,376.48968 673.72748,391.09375 C 688.46098,433.77271 708.59888,501.34345 707.03998,502.8125 C 705.37988,504.37697 691.55538,508.41044 663.07128,515.65625 C 649.32358,519.15338 637.10498,522.03125 635.91498,522.03125 C 633.26748,522.03125 633.14308,513.89643 635.28998,480.40625 C 636.13768,467.18124 637.20718,420.03277 637.66498,375.65625 L 638.50878,294.96875 L 642.75878,287.6875 C 645.10508,283.68378 647.61018,280.40626 648.32128,280.40625 z M 610.57128,288.84375 C 614.72908,288.87342 615.89478,291.42785 615.69628,298.25 C 615.55648,303.05343 613.92438,305.41542 605.10248,313.59375 L 594.69628,323.25 L 595.72748,316.03125 C 596.29368,312.05461 597.33928,306.61291 598.07128,303.9375 C 598.80308,301.26211 599.85068,297.10089 600.38378,294.6875 C 601.15188,291.21071 602.56928,290.05553 607.19628,289.1875 C 608.49268,288.94429 609.61168,288.8369 610.57128,288.84375 z M 93.414979,306.53125 C 94.547979,306.52192 96.903579,308.30978 101.53998,312.46875 L 110.10248,320.15625 L 108.22748,326.625 C 106.29968,333.34578 106.85628,367.30549 109.91498,430.40625 C 110.73628,447.35047 112.18118,479.66869 113.10248,502.21875 C 114.02378,524.7688 115.19248,543.87251 115.69628,544.6875 C 116.19998,545.50249 115.16488,546.93848 113.41498,547.875 C 105.64768,552.0319 59.102679,547.35347 54.633779,541.96875 C 53.583479,540.70332 52.759779,536.25103 52.789979,532.0625 C 52.822879,527.49185 51.836179,523.29943 50.352479,521.59375 C 48.248479,519.17492 48.186479,517.73634 49.914979,511.875 C 54.153479,497.50275 66.162479,483.23814 82.946279,472.625 C 88.125179,469.35014 92.767679,465.62342 93.258779,464.34375 C 95.403279,458.75526 91.372879,452.46269 75.977479,437.46875 L 59.914979,421.84375 L 61.602479,415.59375 C 62.533979,412.15082 65.417679,401.73314 68.008779,392.4375 C 70.599779,383.14187 72.727479,373.63482 72.727479,371.3125 C 72.727479,365.13675 77.008779,360.0185 85.071279,356.5625 C 92.995879,353.16562 93.924879,350.14207 89.633779,341.84375 C 87.341979,337.41186 87.357279,335.66533 89.602479,323.6875 C 90.969079,316.39667 92.288779,309.16947 92.539979,307.625 C 92.652579,306.93309 92.899979,306.53549 93.414979,306.53125 z M 627.88378,311.46875 C 627.99268,311.46543 628.10878,311.50631 628.19628,311.59375 C 629.57648,312.97392 625.43518,523.03365 623.91498,528.78125 C 622.18248,535.33185 615.41728,541.9107 606.60248,545.59375 C 603.47998,546.89843 599.52248,547.96877 597.78998,547.96875 C 594.71388,547.96875 594.65698,546.73965 595.72748,496.46875 C 596.66048,452.65148 597.30098,443.19428 600.03998,432.84375 C 604.97318,414.20175 607.14768,405.33339 609.38378,394.71875 C 610.51088,389.36795 611.98858,382.80042 612.69628,380.125 C 613.40388,377.44959 615.19228,368.34713 616.66498,359.875 C 618.13768,351.40289 620.04528,341.3954 620.88378,337.65625 C 621.72228,333.91709 622.41498,328.61442 622.41498,325.84375 C 622.41498,321.30457 626.24948,311.51861 627.88378,311.46875 z M 614.66498,316.90625 L 613.75878,321.78125 C 613.25658,324.45666 612.38448,329.92439 611.82128,333.9375 C 609.97568,347.08641 598.60808,402.0256 597.50878,403.125 C 597.16098,403.47281 596.43688,401.51549 595.88378,398.75 C 595.33058,395.98453 594.14698,394.16985 593.25878,394.71875 C 592.37058,395.26765 590.95928,398.05181 590.13378,400.90625 C 588.14828,407.772 587.93258,373.68379 589.85248,357.125 C 591.03368,346.93746 592.12688,344.12333 598.50878,335.21875 C 602.53308,329.60362 607.82858,323.19826 610.25878,320.96875 L 614.66498,316.90625 z M 709.19628,512.84375 C 710.63058,512.73324 711.60978,513.81958 712.19628,516.15625 C 712.74198,518.33016 713.61178,521.20225 714.13378,522.5625 C 714.76168,524.19867 713.48718,525.86383 710.38378,527.46875 C 702.61778,531.48463 676.18448,539.83189 658.07128,544 C 638.54078,548.49422 632.13368,548.93341 632.13378,545.75 C 632.13378,544.53679 632.58618,540.27574 633.13378,536.28125 C 634.03098,529.73559 634.48518,529.09441 637.91498,529.75 C 641.46088,530.42788 660.76168,526.88873 671.85248,523.53125 C 674.52788,522.72134 683.29508,520.20314 691.32128,517.90625 C 699.34748,515.60935 707.11408,513.35685 708.57128,512.9375 C 708.79498,512.87311 708.99128,512.85954 709.19628,512.84375 z M 130.07128,514.125 C 130.10488,514.11005 130.12588,514.12023 130.16498,514.15625 C 130.79068,514.73253 133.86438,524.20158 137.00878,535.21875 C 140.15318,546.23589 143.13188,556.53307 143.60248,558.09375 C 144.21068,560.11005 143.53968,560.93751 141.32128,560.9375 C 135.55568,560.9375 132.42878,557.09982 132.00878,549.5 C 131.78968,545.53673 131.03318,535.71371 130.32128,527.6875 C 129.65378,520.16293 129.56598,514.34922 130.07128,514.125 z M 621.66498,549.28125 C 622.14858,549.21148 622.41498,549.26629 622.41498,549.46875 C 622.41498,552.06763 614.06098,560.98647 609.32128,563.4375 C 603.83448,566.27477 595.49348,566.54201 593.88378,563.9375 C 592.60608,561.87004 597.39238,557.6875 601.03998,557.6875 C 602.31988,557.6875 607.64548,555.50561 612.88378,552.84375 C 616.81238,550.84736 620.21408,549.49056 621.66498,549.28125 z M 152.07128,587.8125 C 152.46438,587.84564 152.85868,588.70513 153.44628,590.125 C 156.05508,596.42958 161.58468,611.61158 162.72748,615.65625 C 163.29438,617.66281 163.51058,619.28539 163.22748,619.25 C 162.94448,619.21462 159.19428,615.93576 154.88378,611.96875 L 147.03998,604.75 L 149.41498,595.40625 C 150.79808,589.95198 151.41608,587.75727 152.07128,587.8125 z M 179.00878,628.5 C 179.62338,628.70752 182.50348,633.04121 186.28998,639.5625 C 208.50238,677.81779 230.21898,703.37347 260.82128,727.25 C 278.31138,740.89613 291.63368,753.90984 291.63378,757.375 C 291.63378,763.67521 276.95858,758.67824 256.41498,745.375 C 240.06308,734.78622 232.13368,725.85894 217.63378,701.8125 C 210.43468,689.87359 201.46598,675.13698 197.72748,669.0625 C 191.15398,658.38184 181.31168,637.34793 178.97748,629.03125 C 178.86018,628.61322 178.86688,628.45211 179.00878,628.5 z M 137.44628,699.5625 L 140.50878,706.875 C 158.47668,749.79145 180.86728,785.86657 198.03998,799.5625 C 205.10588,805.19781 250.08458,828.45085 253.94628,828.46875 C 255.55878,828.47622 276.94168,837.25377 282.97748,840.375 C 285.62838,841.74581 288.75598,844.00974 289.91498,845.40625 C 292.95898,849.07399 290.61018,848.54923 265.69628,840.25 C 246.48618,833.85085 201.77628,814.99414 172.03998,800.71875 C 161.12028,795.47657 151.20648,791.18748 150.00878,791.1875 C 148.81108,791.1875 146.47188,787.13578 144.78998,782.1875 C 141.73788,773.20815 141.72248,773.16067 145.32128,763.125 C 150.32198,749.17994 149.99308,740.31933 144.00878,727.53125 C 141.30558,721.75469 138.74588,713.11476 138.28998,708.3125 L 137.44628,699.5625 z M 147.88378,799.28125 C 148.27998,799.28125 157.98538,803.86939 169.44628,809.46875 C 180.90708,815.06815 195.75778,822.32814 202.44628,825.59375 C 216.50118,832.45598 216.26948,832.54377 196.75878,827.71875 C 174.78928,822.28566 161.33918,820.01991 154.38378,820.625 L 148.13378,821.1875 L 147.63378,810.21875 C 147.37008,804.19934 147.48738,799.28123 147.88378,799.28125 z"
       id="path1951"
       sodipodi:nodetypes="csssssssssssssssscccsssssssssssssssssssscccsscccssssssssssssssssssccsssscccsssssccssssscccsssssssssssscccsssssssssssssssssssccccccsssssssssssssssssssssssssssssssssssscsssssssssccssscccccsssssccsssssssscccccscccssscccccsssssssssscccssssssccssssssssssscccssssssscccssssssssssccssssssccsssssccssscccccssssssscccsssssssssscccssscccc" />
    <path
       style="fill:#000000;fill-opacity:1"
       d="M 281.001,133.18694 C 280.66083,133.17092 280.30931,133.19481 279.9385,133.21819 C 279.91644,133.21773 279.89836,133.21829 279.876,133.21819 C 279.59085,133.21691 279.25617,133.2779 278.90725,133.34319 C 278.86824,133.35049 278.82226,133.33497 278.78225,133.34319 C 274.32651,134.04846 267.69133,137.24744 256.46975,143.84319 C 235.37655,156.24117 169.22355,179.63982 137.03225,186.09319 C 118.43005,189.82236 106.51253,194.69842 96.688495,202.59319 C 89.193695,208.61618 77.873695,225.07348 72.875995,237.21819 C 67.748095,249.67935 61.094725,272.80489 61.094745,278.12445 C 61.094745,281.06799 58.972205,285.61321 55.563495,290.0307 C 49.795395,297.50597 46.516385,306.6405 46.500995,315.24945 C 46.495995,318.03859 45.475365,321.17618 44.219745,322.2182 C 39.267945,326.32788 36.579875,335.5338 35.907245,350.68695 C 35.366545,362.86671 33.888095,370.04451 28.750995,385.9057 C 14.313895,430.48137 4.3047451,469.08588 1.9072451,489.3432 C 1.5660051,492.22623 1.0295251,499.77723 0.56349506,508.1557 C 0.54299506,508.52421 0.52125506,508.84661 0.50099506,509.2182 C 0.25821506,512.88693 0.02782506,516.5316 -0.09275494,519.87445 C -0.23198494,523.73439 -0.29967494,526.74951 -0.34275494,529.31195 C -0.44081494,535.14381 -0.25671494,538.1241 0.40724506,539.8432 C 0.41812506,539.88158 0.42734506,539.93042 0.43849506,539.9682 C 1.5038851,543.57853 3.7916951,544.44743 8.0947451,545.3432 C 10.931445,545.93375 17.252335,548.10468 22.157245,550.1557 C 31.266545,553.96475 48.032425,559.18195 61.094745,562.31195 C 65.107845,563.27357 79.677975,564.4865 93.500995,564.99945 C 116.9993,565.87146 118.91791,566.17628 122.751,569.74945 C 125.0058,571.85134 129.2832,574.43362 132.251,575.4682 C 133.84506,576.02389 134.96179,576.41498 135.71975,576.9057 C 135.73117,576.91309 135.73975,576.92953 135.751,576.93695 C 136.20985,577.29155 136.55801,577.72691 136.84475,578.2182 C 137.2713,579.30016 137.05344,580.91219 136.59475,583.7807 C 136.02825,587.32352 134.04482,594.3425 132.1885,599.37445 C 130.3322,604.40642 128.13957,612.89864 127.28225,618.24945 C 125.57205,628.92268 126.68602,650.55162 129.4385,659.7807 C 130.884,664.62721 130.62546,667.17726 127.96975,674.37445 C 119.46835,697.4134 119.84716,713.07968 129.34475,733.1557 C 134.91535,744.93078 135.15283,749.18871 130.8135,759.31195 C 127.1562,767.84405 126.56228,781.2611 129.59475,786.5932 C 130.96875,789.00906 131.92047,803.0049 132.59475,830.6557 C 133.42905,864.87007 134.13084,873.56615 137.21975,886.37445 C 140.14436,898.50163 141.23134,903.70259 146.6885,905.74945 C 146.72051,905.76146 146.74993,905.76891 146.78225,905.7807 C 148.32578,906.54723 150.18107,906.85339 152.46975,906.81195 C 156.74273,907.10282 162.53835,906.84456 170.8135,906.5307 C 200.2133,905.4156 215.79517,907.34021 245.501,915.7182 C 267.9514,922.04991 278.3895,924.25854 297.8135,926.87445 C 299.64784,927.12148 303.02224,927.37165 307.21975,927.5932 C 308.24287,927.81523 308.96672,928.02766 309.0948,928.1557 C 309.6204,928.68128 320.4924,928.70507 334.5323,928.4682 C 334.6581,928.47014 334.7813,928.4663 334.9073,928.4682 C 337.4051,928.50581 339.92,928.51343 342.4073,928.5307 C 400.3305,928.93291 425.315,924.06693 480.2198,901.6557 C 522.9589,884.21024 537.7103,879.79028 562.3761,877.0307 C 569.5377,876.22944 576.1293,874.87119 577.0011,873.99945 C 584.1616,866.83882 582.3145,802.64285 574.4073,783.7182 C 572.1455,778.30501 572.2745,777.36435 576.6261,766.81195 C 584.7603,747.08618 587.0463,737.42445 587.0323,722.8432 C 587.0216,711.66503 586.3257,707.69522 583.3136,701.87445 C 579.2183,693.96115 579.2582,692.11741 584.1886,666.9057 C 586.3489,655.85901 587.0801,643.74393 587.1573,617.12445 L 587.2511,582.06195 L 588.8136,581.9682 L 597.1886,581.9682 C 609.0221,581.96822 617.6192,578.72207 625.3448,571.31195 C 630.3821,566.48033 633.0495,565.47233 649.1261,562.43695 C 681.1605,556.38862 719.7968,543.28022 726.3761,536.2182 C 727.1779,535.35756 727.7618,534.6483 728.1573,533.81195 C 728.167,533.79152 728.1791,533.77005 728.1886,533.74945 C 728.824,532.7904 729.1261,531.83483 729.1261,530.87445 C 729.1261,530.10203 728.7775,528.22416 728.2198,525.7182 C 727.7856,522.99476 727.0909,519.45725 726.0948,514.4682 C 723.1321,499.62808 700.8886,426.23937 689.2511,392.87445 C 684.3083,378.70403 683.7271,375.40622 684.6261,366.8432 C 685.8694,355.00044 683.695,346.11252 677.5011,337.56195 C 673.927,332.62811 672.6728,328.67619 671.8448,319.87445 C 669.8765,298.95235 657.4147,250.05294 650.6573,236.74944 C 638.3092,212.43946 619.8562,201.24562 555.9386,179.34319 C 510.1222,163.64348 491.6729,156.03927 479.0635,147.59319 C 472.5741,143.24646 465.9543,139.18537 464.3448,138.59319 C 462.6705,137.97717 457.4719,139.17226 452.1885,141.37444 C 433.9751,148.96592 403.3525,153.58485 370.7823,153.65569 C 335.9762,153.7314 316.9631,149.40109 283.71975,133.84319 C 282.91007,133.46426 282.0215,133.23503 281.001,133.18694 z M 277.876,147.24944 C 277.88775,147.25401 277.89496,147.24382 277.90725,147.24944 C 277.91762,147.25419 277.92776,147.27521 277.9385,147.28069 L 285.6885,160.59319 C 295.4807,177.44609 318.6397,200.94132 332.7198,208.34319 C 338.0875,211.16498 347.9298,214.73357 354.5948,216.24944 C 365.083,218.63493 368.1182,218.71663 377.251,216.93694 C 390.1089,214.43136 404.5385,208.13582 417.2198,199.46819 C 426.6114,193.0491 450.431,169.49067 458.501,158.65569 L 462.6885,153.06194 L 470.2198,157.84319 C 474.8944,160.79662 477.7805,163.80917 477.7823,165.71819 C 477.7865,170.12992 468.0018,186.91093 458.8135,198.24944 C 441.5654,219.53392 419.156,233.0294 391.4385,238.81194 C 341.8169,249.16419 289.13878,222.25262 264.251,173.84319 C 257.1055,159.94454 257.32289,159.05425 269.626,151.96819 L 277.876,147.24944 z M 290.751,154.06194 C 292.14686,154.14553 297.07027,155.6091 302.65725,157.62444 C 322.8206,164.89776 331.9962,166.88908 356.001,167.31194 C 365.3206,168.2835 371.2862,168.28353 382.7198,167.31194 C 409.0584,166.84123 426.2118,164.74208 442.0948,160.18694 C 445.1132,159.32127 447.8693,158.89908 448.2198,159.24944 C 448.5702,159.59981 444.2369,164.75479 438.5948,170.68694 C 428.1984,181.61787 427.5436,181.93848 408.876,186.18694 C 399.0114,188.43194 358.5233,189.39098 344.9698,187.68694 C 338.3592,186.8558 327.0215,184.34209 319.751,182.12444 C 306.5677,178.10329 306.48986,178.08492 298.09475,166.46819 C 293.46485,160.0616 290.00258,154.49782 290.376,154.12444 C 290.42268,154.07777 290.55159,154.05 290.751,154.06194 z M 250.65725,163.53069 C 250.66941,163.53195 250.67617,163.5602 250.6885,163.56194 L 257.59475,176.81194 C 263.11515,187.4228 268.1139,193.7455 282.376,208.09319 C 296.935,222.73957 302.65088,227.28937 313.2198,232.65569 C 345.3364,248.96277 375.3672,251.40889 408.376,240.40569 C 438.3659,230.4088 464.3655,207.37803 480.2823,176.68694 C 483.4942,170.49384 485.4803,168.25769 487.3448,168.84319 C 488.7754,169.29244 496.9039,172.37419 505.376,175.65569 C 513.8481,178.9372 536.3693,186.98597 555.4386,193.56194 C 618.9031,215.4473 633.8897,225.90095 643.2198,254.7807 L 646.3761,264.49945 C 646.3967,264.83918 646.4093,265.18957 646.4073,265.49945 C 646.4058,265.73259 646.3511,266.01032 646.2823,266.3432 L 639.1261,279.1557 C 634.9454,286.6039 629.7975,294.7954 627.6886,297.37445 C 623.9565,301.93843 623.839,301.97246 623.7823,298.3432 C 623.7169,294.15798 619.3776,284.85108 616.6261,283.0307 C 613.7813,281.14857 605.1095,281.60968 602.9698,283.74945 C 598.8942,287.82496 600.7508,289.99636 607.3761,288.93695 C 612.6932,288.08672 613.9781,288.46223 615.4698,291.24945 C 618.1357,296.23062 617.7634,307.74945 614.9386,307.74945 C 613.6719,307.74945 608.2831,312.54986 602.9698,318.43695 C 597.6565,324.32403 592.917,328.52339 592.4386,327.74945 C 591.5854,326.36884 592.8381,319.00542 596.9386,301.24945 C 598.0713,296.34453 598.6423,291.75765 598.2198,291.0307 C 596.3879,287.87828 591.8257,295.45919 589.9073,304.8432 C 585.0101,328.79935 584.2663,333.47939 582.2198,352.9057 C 581.3148,361.49719 578.6029,427.10378 576.7198,486.0932 C 575.8231,514.18496 574.5378,541.9215 573.8448,547.7182 C 573.1238,553.74946 566.6009,575.93209 558.5948,599.5932 C 550.9,622.33415 542.2478,648.23767 539.3761,657.1557 C 526.768,696.30751 504.7451,750.29392 493.9385,768.5307 C 490.4111,774.48333 487.5323,779.79951 487.5323,780.37445 C 487.5323,780.94943 489.0851,781.19066 491.001,780.9057 C 498.7029,779.76009 521.0161,729.76094 545.8448,657.9682 C 547.8495,652.17149 551.929,641.23603 554.9073,633.6557 C 557.8856,626.07538 562.6388,613.14131 565.4698,604.9057 C 568.3009,596.67006 571.2475,590.32696 572.0323,590.81195 C 574.033,592.04851 573.8092,636.32061 571.7198,653.0307 C 567.0641,690.26611 563.9924,701.04124 550.5323,727.3432 C 537.4543,752.89846 522.3311,779.35525 504.126,808.49945 C 496.9744,819.94839 494.1782,825.80156 495.3135,826.93695 C 496.2278,827.85118 497.7328,828.13335 498.6573,827.56195 C 502.8905,824.94574 541.7642,758.57297 558.5011,725.4057 C 568.0717,706.43948 569.2939,704.74893 571.2823,707.4682 C 574.9388,712.46875 574.7171,728.14294 570.8136,742.2807 C 566.7021,757.17136 557.151,778.25807 550.2511,787.68695 C 546.6617,792.59186 535.7809,804.44959 526.0636,814.0307 C 509.1441,830.71269 504.6541,838.19855 515.3135,831.9057 C 520.5334,828.82412 544.6267,804.49093 554.2823,792.56195 L 560.1886,785.24945 L 562.0011,789.87445 C 565.2515,798.26657 567.7729,820.56886 568.4073,838.2182 C 568.4062,838.36456 568.4087,838.50935 568.4073,838.6557 C 568.3948,840.00417 568.349,841.34369 568.3136,842.68695 L 567.9073,858.2182 L 567.9073,858.24945 C 567.6035,860.13619 567.1896,861.43593 566.6573,861.9682 C 565.5872,863.03837 562.2628,863.9057 559.2823,863.9057 C 544.0884,863.9057 513.9759,872.99903 474.5635,889.4682 C 438.3789,904.58859 409.6574,912.30959 377.001,915.74945 C 362.8564,917.23935 330.1408,917.5654 317.2823,916.3432 C 296.59025,914.37643 269.75738,908.82 244.0635,901.18695 C 223.3587,895.03603 195.13291,891.25709 172.4385,891.5932 C 162.7822,891.73619 154.27206,891.21465 153.53225,890.43695 C 150.40735,887.15168 147.0722,856.35021 146.4385,824.9057 C 145.8969,798.03437 145.19728,789.99248 142.8135,783.2807 C 141.41774,779.35079 140.67959,777.2265 140.6885,774.99945 C 140.70072,774.68443 140.7276,774.35122 140.751,774.0307 C 140.75631,773.95798 140.77636,773.88498 140.78225,773.81195 C 141.03172,771.67495 141.91303,769.11926 143.46975,764.68695 C 148.50205,750.35924 148.11646,741.85006 141.84475,728.3432 C 134.77365,713.11494 134.60087,700.10227 141.21975,680.31195 L 145.9385,666.1557 L 143.251,654.93695 C 139.2735,638.45758 139.72988,622.07781 144.59475,606.74945 C 146.82275,599.72952 149.0793,591.60084 149.626,588.68695 C 150.7787,582.54262 152.75879,581.7919 154.001,587.0307 C 156.4118,597.1984 175.09152,648.05883 182.1885,663.7807 C 196.2591,694.95096 221.74212,738.88315 239.03225,761.74945 C 246.24115,771.28329 260.38244,786.06193 262.28225,786.06195 C 265.77785,786.06195 263.23272,780.76142 255.501,771.9682 C 250.9466,766.78846 244.1026,758.19399 240.3135,752.8432 C 223.4136,728.9773 189.89138,664.92397 176.65725,631.2182 C 171.22765,617.38979 160.81944,585.60909 151.15725,553.4057 C 148.74905,545.37948 146.14183,536.97896 145.376,534.74945 C 139.7282,518.30694 131.39855,468.03951 133.03225,460.24945 C 133.51195,457.96176 132.88818,449.89225 131.65725,442.31195 C 125.72615,405.78582 124.63652,366.36655 128.5635,332.06195 C 132.9183,294.02101 133.05443,286.79582 129.6885,277.7807 C 127.3808,271.60002 124.96712,268.58777 119.40725,264.9057 C 115.41445,262.26148 111.58921,259.1346 110.876,257.9682 C 108.9696,254.85023 101.97944,255.40718 100.15725,258.81195 C 99.290645,260.43117 98.336025,266.44881 98.032245,272.18695 C 97.728445,277.92509 96.774725,282.56626 95.907245,282.5307 C 93.458845,282.43033 81.750995,262.14779 81.750995,257.99945 C 81.750995,252.31991 88.546325,236.61811 95.438495,226.34319 C 105.2727,211.68251 114.34728,205.97495 134.876,201.53069 C 164.4136,195.1361 217.66803,178.20623 241.40725,167.65569 L 250.65725,163.53069 z M 323.2198,191.40569 C 323.8773,191.37437 325.1514,191.58416 327.1573,191.93694 C 330.1998,192.47205 335.2235,193.73304 338.3448,194.71819 C 346.6135,197.32796 397.5869,197.11361 405.3448,194.43694 C 408.7488,193.26247 411.9199,192.66829 412.376,193.12444 C 413.5651,194.31347 399.8106,202.1019 389.8135,205.90569 C 379.9923,209.64251 361.4498,211.04391 352.3135,208.74944 C 344.486,206.78371 328.1331,198.179 324.4073,194.06194 C 322.7243,192.20232 322.1239,191.45791 323.2198,191.40569 z M 108.3135,265.93695 C 112.36003,266.09045 120.72746,275.52671 122.6885,282.5307 C 124.5732,289.26217 123.91042,307.571 121.5635,313.68695 C 121.1098,314.86925 120.26191,315.8289 119.6885,315.81195 C 116.725,315.72437 103.078,305.61923 98.625995,300.2182 C 92.341995,292.59467 91.986265,289.4434 97.563495,290.8432 C 102.4075,292.05897 102.96743,290.94568 104.53225,276.93695 C 105.16355,271.28516 106.53251,266.37284 107.5635,266.0307 C 107.79163,265.95499 108.04373,265.92672 108.3135,265.93695 z M 648.5636,277.93695 C 649.1466,277.97118 649.5214,278.84694 650.0636,280.2807 C 653.0924,288.29037 657.6264,312.17881 658.7198,325.9057 C 659.7371,338.67843 660.2649,340.40563 664.4386,344.12445 C 670.1795,349.23957 671.4218,353.99431 670.2823,366.56195 C 669.4721,375.49761 670.2379,378.88569 678.2511,402.4682 C 685.9328,425.07509 709.2697,500.84523 709.6261,504.2807 C 709.6136,504.37516 709.6221,504.46787 709.5948,504.56195 C 708.2667,506.02383 686.8304,512.95859 674.0011,516.0307 C 668.2043,517.41877 660.9037,519.2344 657.7823,520.06195 C 654.661,520.88947 648.6434,522.43544 644.4073,523.49945 C 636.494,525.48711 633.6518,529.87446 640.2823,529.87445 C 644.9643,529.87445 673.7981,522.76925 694.0636,516.62445 C 702.8657,513.95552 710.5879,512.38426 711.2511,513.12445 C 711.9141,513.86463 713.327,517.03439 714.3761,520.1557 C 716.0791,525.2229 715.913,526.10967 712.9386,528.5307 C 708.4116,532.21522 678.7375,541.94036 656.9698,546.87445 C 647.16,549.09804 637.0939,550.92888 634.5948,550.93695 L 630.0323,550.9682 L 630.9073,537.5932 C 632.956,505.86676 633.9782,466.85794 634.9073,383.93695 L 635.9073,295.99945 C 636.0733,295.60717 636.2616,295.19952 636.4698,294.74945 L 642.2198,285.93695 C 646.0365,280.12711 647.5919,277.87991 648.5636,277.93695 z M 75.282245,280.18695 C 75.952645,280.18695 78.304265,283.64391 80.532245,287.87445 C 84.583145,295.56638 102.00561,313.44446 114.0635,322.31195 L 120.4385,327.0307 L 119.03225,340.49945 C 117.45765,355.36868 118.77687,408.65519 121.1885,427.7182 C 122.0347,434.40671 123.36971,449.37477 124.1885,460.9682 C 125.0073,472.56161 126.44084,486.4299 127.34475,491.7807 C 129.26735,503.16133 137.52399,535.42425 142.3135,550.24945 C 144.1493,555.93171 145.19328,561.3314 144.626,562.24945 C 142.4479,565.77359 136.57837,563.69434 130.65725,557.2807 C 124.08045,550.15674 123.21814,549.94478 107.28225,551.81195 C 106.44363,551.91021 105.56148,551.99221 104.6885,552.06195 L 97.469745,551.99945 C 93.775985,551.95831 90.667035,551.89904 87.813495,551.8432 C 68.636305,550.17406 45.124875,544.03772 21.344745,534.2182 C 13.354445,530.91879 11.548095,529.43674 11.125995,525.9682 C 10.823795,523.48487 11.533955,521.40867 12.844745,520.9057 C 14.070745,520.43523 22.601315,522.6679 31.813495,525.87445 C 43.744095,530.02724 49.073605,531.20804 50.313495,529.9682 C 53.470295,526.81142 46.179645,521.97158 29.657245,516.2182 C 21.512115,513.38189 14.620765,510.85472 13.469745,510.2807 C 13.348875,510.08994 13.243715,509.88935 13.157245,509.68695 C 13.114085,505.58528 18.737775,474.98641 22.313495,460.2182 C 26.778195,441.77796 39.639345,397.96243 43.344745,388.56195 C 46.924845,379.47911 51.337415,355.29925 51.344745,344.74945 C 51.348645,339.06035 52.366785,335.98191 55.375995,332.4057 C 60.721495,326.05294 62.719725,320.37338 62.719745,311.5307 C 62.719745,305.48757 63.702765,303.02164 68.375995,297.56195 C 72.390995,292.87142 74.063495,289.37039 74.063495,285.56195 C 74.063495,282.60118 74.611835,280.18695 75.282245,280.18695 z M 629.0323,309.4057 C 629.1445,309.41853 629.2343,309.45148 629.3136,309.5307 C 630.5089,310.72606 627.3465,517.18871 626.0011,525.81195 C 624.5057,535.39554 621.0401,540.20486 611.3761,546.06195 C 604.6872,550.11572 600.2201,551.51716 591.8761,552.18695 L 581.0636,553.06195 L 582.1573,546.74945 C 584.3841,533.94414 586.3796,474.11495 586.2823,422.87445 C 586.1871,372.72212 587.6405,350.35612 591.4698,343.12445 C 594.4261,337.54135 612.4974,315.84319 614.1886,315.8432 C 615.3578,315.8432 615.5799,318.70036 614.8761,324.37445 C 611.7768,349.3556 599.8085,406.57909 595.4698,417.18695 C 594.3756,419.86236 592.1344,427.34127 590.4698,433.81195 C 588.0352,443.27577 587.8244,445.97029 589.4698,447.5932 C 591.1037,449.20468 591.9303,449.06465 593.5948,446.81195 C 595.3087,444.49228 601.9517,419.34833 610.8136,381.5307 C 613.3523,370.69681 616.8051,351.48619 618.8448,336.93695 C 619.9075,329.35663 621.0755,321.68929 621.4386,319.9057 C 622.2051,316.1398 627.3499,309.21325 629.0323,309.4057 z M 622.1886,547.7182 C 628.1102,547.7182 616.6355,562.98553 608.0011,566.5932 C 602.8853,568.7307 597.0523,569.13484 590.5011,567.74945 C 588.7175,567.37229 585.6014,566.70887 583.5948,566.2807 C 577.2938,564.93617 579.1712,560.68695 586.0636,560.68695 C 592.8272,560.68695 606.2699,556.21347 615.0011,551.06195 C 618.1235,549.2197 621.3477,547.71821 622.1886,547.7182 z M 191.251,586.8432 C 187.76401,586.65738 188.97316,591.15902 195.84475,604.9057 C 233.32405,679.88265 303.23754,760.98495 369.9698,806.87445 C 381.262,814.63972 390.5023,816.18817 385.751,809.5307 C 385.0958,808.61267 377.0642,802.55302 367.9073,796.06195 C 345.9473,780.495 334.6655,771.05167 313.4385,750.4682 C 272.3894,710.66341 230.99619,655.8259 205.126,606.93695 C 198.8461,595.06938 193.76433,587.27052 192.03225,586.93695 C 191.75834,586.8842 191.48347,586.85559 191.251,586.8432 z M 150.28225,795.49945 C 149.06589,795.59843 148.65726,796.29814 148.65725,797.49945 C 148.65725,799.33343 174.20152,812.28138 201.0635,824.06195 C 211.9162,828.82152 225.91465,835.14909 232.15725,838.0932 C 238.39985,841.03735 251.16836,846.1547 260.53225,849.49945 C 277.84445,855.68341 287.28223,856.83609 287.28225,852.74945 C 287.28225,852.31818 286.49321,851.69957 285.15725,850.93695 C 285.1356,850.91847 285.11695,850.89272 285.09475,850.87445 C 284.51016,850.39323 283.71999,849.982 282.90725,849.74945 C 282.87499,849.74022 282.84587,849.72687 282.8135,849.7182 C 279.35469,848.10426 274.01257,846.07145 267.001,843.7182 C 243.8892,835.96131 205.79679,820.07064 173.5635,804.7182 C 159.45373,797.99779 152.95825,795.2817 150.28225,795.49945 z"
       id="path1949" />
  </g>
</svg>
